<svg width="330" height="162" viewBox="0 0 330 162" fill="none" xmlns="http://www.w3.org/2000/svg">
<path d="M24.6286 59.85C19.4153 59.85 14.9953 58.745 11.3686 56.535C7.74192 54.2683 4.99359 51.095 3.12359 47.015C1.25359 42.935 0.318588 38.175 0.318588 32.735V27.38C0.318588 21.94 1.14025 17.2083 2.78359 13.185C4.48359 9.105 7.00525 5.96 10.3486 3.75C13.6919 1.48333 17.8853 0.349995 22.9286 0.349995C27.2353 0.349995 30.8336 1.2 33.7236 2.9C36.6136 4.54333 38.7386 6.75333 40.0986 9.53C41.5153 12.25 42.1103 15.225 41.8836 18.455L31.9386 20.92C32.5053 15.2533 31.9103 10.9183 30.1536 7.915C28.4536 4.855 25.9036 3.325 22.5036 3.325C18.8769 3.325 16.0719 4.855 14.0886 7.915C12.1619 10.975 11.1986 16.0467 11.1986 23.13V36.985C11.1986 44.0117 12.3036 49.0833 14.5136 52.2C16.7236 55.3167 20.0953 56.875 24.6286 56.875C26.4986 56.875 28.2269 56.535 29.8136 55.855C31.4569 55.175 32.8169 54.0133 33.8936 52.37C35.0269 50.67 35.7353 48.29 36.0186 45.23L42.1386 46.845C41.3453 50.0183 40.0703 52.5683 38.3136 54.495C36.5569 56.4217 34.4886 57.81 32.1086 58.66C29.7853 59.4533 27.2919 59.85 24.6286 59.85ZM98.8064 27.38V32.735C98.8064 41.4617 96.8514 48.1767 92.9414 52.88C89.088 57.5267 83.3647 59.85 75.7714 59.85C68.178 59.85 62.4264 57.5267 58.5164 52.88C54.663 48.1767 52.7364 41.4617 52.7364 32.735V27.38C52.7364 18.6533 54.663 11.9667 58.5164 7.32C62.4264 2.67333 68.178 0.349995 75.7714 0.349995C83.3647 0.349995 89.088 2.67333 92.9414 7.32C96.8514 11.9667 98.8064 18.6533 98.8064 27.38ZM87.9264 23.13C87.9264 18.1433 87.5014 14.2333 86.6514 11.4C85.8014 8.51 84.4697 6.44167 82.6564 5.195C80.8997 3.94833 78.6047 3.325 75.7714 3.325C72.9947 3.325 70.6997 3.94833 68.8864 5.195C67.073 6.44167 65.7414 8.51 64.8914 11.4C64.0414 14.2333 63.6164 18.1433 63.6164 23.13V36.985C63.6164 41.915 64.0414 45.825 64.8914 48.715C65.7414 51.605 67.073 53.7017 68.8864 55.005C70.6997 56.2517 72.9947 56.875 75.7714 56.875C78.6047 56.875 80.8997 56.2517 82.6564 55.005C84.4697 53.7017 85.8014 51.605 86.6514 48.715C87.5014 45.825 87.9264 41.915 87.9264 36.985V23.13ZM176.482 56.62V59H153.192V56.62L157.867 56.025C158.773 55.9117 159.312 55.685 159.482 55.345C159.652 54.9483 159.737 53.7867 159.737 51.86V8.17L144.182 52.2H135.087L119.702 8.425V51.86C119.702 53.7867 119.787 54.9483 119.957 55.345C120.127 55.685 120.665 55.9117 121.572 56.025L126.247 56.62V59H109.757V56.62L114.432 56.025C115.338 55.9117 115.877 55.685 116.047 55.345C116.217 54.9483 116.302 53.7867 116.302 51.86V8.34C116.302 6.41333 116.217 5.28 116.047 4.94C115.877 4.54333 115.338 4.28833 114.432 4.175L109.757 3.58V1.2H127.692L143.247 45.4L159.057 1.2H176.482V3.58L171.807 4.175C170.9 4.28833 170.362 4.54333 170.192 4.94C170.022 5.28 169.937 6.41333 169.937 8.34V51.86C169.937 53.7867 170.022 54.9483 170.192 55.345C170.362 55.685 170.9 55.9117 171.807 56.025L176.482 56.62ZM185.5 3.58V1.2H208.79V3.58L204.115 4.175C203.208 4.28833 202.67 4.54333 202.5 4.94C202.33 5.28 202.245 6.41333 202.245 8.34V51.86C202.245 53.7867 202.33 54.9483 202.5 55.345C202.67 55.685 203.208 55.9117 204.115 56.025L208.79 56.62V59H185.5V56.62L190.175 56.025C191.081 55.9117 191.62 55.685 191.79 55.345C191.96 54.9483 192.045 53.7867 192.045 51.86V8.34C192.045 6.41333 191.96 5.28 191.79 4.94C191.62 4.54333 191.081 4.28833 190.175 4.175L185.5 3.58ZM253.7 3.58V1.2H270.19V3.58L265.515 4.175C264.608 4.28833 264.07 4.54333 263.9 4.94C263.73 5.28 263.645 6.41333 263.645 8.34V59H258.97L227.775 8.595V51.86C227.775 53.7867 227.86 54.9483 228.03 55.345C228.2 55.685 228.738 55.9117 229.645 56.025L234.32 56.62V59H217.83V56.62L222.505 56.025C223.411 55.9117 223.95 55.685 224.12 55.345C224.29 54.9483 224.375 53.7867 224.375 51.86V8.34C224.375 6.41333 224.29 5.28 224.12 4.94C223.95 4.54333 223.411 4.28833 222.505 4.175L217.83 3.58V1.2H234.915L260.245 41.915V8.34C260.245 6.41333 260.16 5.28 259.99 4.94C259.82 4.54333 259.281 4.28833 258.375 4.175L253.7 3.58ZM304.914 35.2V32.82H329.054V35.2L324.379 35.795C323.472 35.9083 322.934 36.1633 322.764 36.56C322.594 36.9 322.509 38.0333 322.509 39.96V59H320.214C318.684 57.4133 316.984 56.0817 315.114 55.005C313.584 56.365 311.771 57.5267 309.674 58.49C307.577 59.3967 305.027 59.85 302.024 59.85C297.377 59.85 293.382 58.6883 290.039 56.365C286.752 53.985 284.231 50.7267 282.474 46.59C280.717 42.3967 279.839 37.6367 279.839 32.31V26.955C279.839 21.7983 280.717 17.2367 282.474 13.27C284.231 9.24666 286.809 6.10166 290.209 3.835C293.609 1.51166 297.774 0.349995 302.704 0.349995C307.351 0.349995 311.176 1.2 314.179 2.9C317.239 4.54333 319.477 6.75333 320.894 9.53C322.311 12.25 322.849 15.225 322.509 18.455L312.564 20.92C313.187 15.2533 312.564 10.9183 310.694 7.915C308.824 4.855 306.047 3.325 302.364 3.325C294.601 3.325 290.719 10.21 290.719 23.98V36.135C290.719 49.9617 294.827 56.875 303.044 56.875C304.857 56.875 306.671 56.5067 308.484 55.77C310.354 55.0333 311.912 53.9567 313.159 52.54V39.96C313.159 38.0333 313.074 36.8717 312.904 36.475C312.734 36.0783 312.196 35.8517 311.289 35.795L304.914 35.2ZM20.4576 158.875C23.8576 158.875 26.6626 158.082 28.8726 156.495C31.1393 154.852 32.2726 152.302 32.2726 148.845C32.2726 146.295 31.5076 144.17 29.9776 142.47C28.5043 140.77 25.8409 139.353 21.9876 138.22L14.0826 135.84C10.1159 134.65 7.05595 132.61 4.90261 129.72C2.80594 126.773 1.75761 123.118 1.75761 118.755C1.75761 115.865 2.40928 113.173 3.71261 110.68C5.07261 108.187 7.11261 106.175 9.83261 104.645C12.6093 103.115 16.0943 102.35 20.2876 102.35C24.8776 102.35 28.5893 103.2 31.4226 104.9C34.2559 106.543 36.2393 108.697 37.3726 111.36C38.5059 114.023 38.7893 116.885 38.2226 119.945L28.4476 121.73C29.3543 116.46 28.9576 112.408 27.2576 109.575C25.6143 106.742 22.9226 105.325 19.1826 105.325C16.2926 105.325 13.9693 106.175 12.2126 107.875C10.5126 109.575 9.66261 112.012 9.66261 115.185C9.66261 117.792 10.3993 120.087 11.8726 122.07C13.4026 124.053 15.8959 125.583 19.3526 126.66L27.2576 129.04C31.5643 130.287 34.7943 132.185 36.9476 134.735C39.1009 137.228 40.1776 140.713 40.1776 145.19C40.1776 148.363 39.4409 151.225 37.9676 153.775C36.5509 156.268 34.3693 158.252 31.4226 159.725C28.5326 161.142 24.9059 161.85 20.5426 161.85C17.3693 161.85 14.3659 161.397 11.5326 160.49C8.69928 159.527 6.31928 157.968 4.39261 155.815C2.52261 153.662 1.33261 150.743 0.822611 147.06L6.51761 145.02C6.80094 148.647 7.59428 151.48 8.89761 153.52C10.2576 155.503 11.9293 156.892 13.9126 157.685C15.9526 158.478 18.1343 158.875 20.4576 158.875ZM133.892 129.38V134.735C133.892 143.462 131.937 150.177 128.027 154.88C124.174 159.527 118.45 161.85 110.857 161.85C103.264 161.85 97.5121 159.527 93.6021 154.88C89.7488 150.177 87.8221 143.462 87.8221 134.735V129.38C87.8221 120.653 89.7488 113.967 93.6021 109.32C97.5121 104.673 103.264 102.35 110.857 102.35C118.45 102.35 124.174 104.673 128.027 109.32C131.937 113.967 133.892 120.653 133.892 129.38ZM123.012 125.13C123.012 120.143 122.587 116.233 121.737 113.4C120.887 110.51 119.555 108.442 117.742 107.195C115.985 105.948 113.69 105.325 110.857 105.325C108.08 105.325 105.785 105.948 103.972 107.195C102.159 108.442 100.827 110.51 99.9771 113.4C99.1271 116.233 98.7021 120.143 98.7021 125.13V138.985C98.7021 143.915 99.1271 147.825 99.9771 150.715C100.827 153.605 102.159 155.702 103.972 157.005C105.785 158.252 108.08 158.875 110.857 158.875C113.69 158.875 115.985 158.252 117.742 157.005C119.555 155.702 120.887 153.605 121.737 150.715C122.587 147.825 123.012 143.915 123.012 138.985V125.13ZM228.568 129.38V134.735C228.568 143.462 226.613 150.177 222.702 154.88C218.849 159.527 213.126 161.85 205.532 161.85C197.939 161.85 192.187 159.527 188.277 154.88C184.424 150.177 182.497 143.462 182.497 134.735V129.38C182.497 120.653 184.424 113.967 188.277 109.32C192.187 104.673 197.939 102.35 205.532 102.35C213.126 102.35 218.849 104.673 222.702 109.32C226.613 113.967 228.568 120.653 228.568 129.38ZM217.687 125.13C217.687 120.143 217.262 116.233 216.412 113.4C215.562 110.51 214.231 108.442 212.417 107.195C210.661 105.948 208.366 105.325 205.532 105.325C202.756 105.325 200.461 105.948 198.647 107.195C196.834 108.442 195.502 110.51 194.652 113.4C193.802 116.233 193.377 120.143 193.377 125.13V138.985C193.377 143.915 193.802 147.825 194.652 150.715C195.502 153.605 196.834 155.702 198.647 157.005C200.461 158.252 202.756 158.875 205.532 158.875C208.366 158.875 210.661 158.252 212.417 157.005C214.231 155.702 215.562 153.605 216.412 150.715C217.262 147.825 217.687 143.915 217.687 138.985V125.13ZM311.088 105.58V103.2H327.578V105.58L322.903 106.175C321.996 106.288 321.458 106.543 321.288 106.94C321.118 107.28 321.033 108.413 321.033 110.34V161H316.358L285.163 110.595V153.86C285.163 155.787 285.248 156.948 285.418 157.345C285.588 157.685 286.126 157.912 287.033 158.025L291.708 158.62V161H275.218V158.62L279.893 158.025C280.8 157.912 281.338 157.685 281.508 157.345C281.678 156.948 281.763 155.787 281.763 153.86V110.34C281.763 108.413 281.678 107.28 281.508 106.94C281.338 106.543 280.8 106.288 279.893 106.175L275.218 105.58V103.2H292.303L317.633 143.915V110.34C317.633 108.413 317.548 107.28 317.378 106.94C317.208 106.543 316.67 106.288 315.763 106.175L311.088 105.58Z" fill="url(#paint0_linear_403_236)"/>
<defs>
<linearGradient id="paint0_linear_403_236" x1="45.363" y1="-16.6333" x2="187.782" y2="202.62" gradientUnits="userSpaceOnUse">
<stop stop-color="white"/>
<stop offset="0.369792" stop-color="#DBB089"/>
<stop offset="0.984375" stop-color="#BE7A3B"/>
</linearGradient>
</defs>
</svg>
