<svg width="311" height="231" viewBox="0 0 311 231" fill="none" xmlns="http://www.w3.org/2000/svg">
<path d="M24.0288 64.6C27.8688 64.6 31.0368 63.704 33.5328 61.912C36.0928 60.056 37.3728 57.176 37.3728 53.272C37.3728 50.392 36.5088 47.992 34.7808 46.072C33.1168 44.152 30.1088 42.552 25.7568 41.272L16.8288 38.584C12.3488 37.24 8.89275 34.936 6.46075 31.672C4.09275 28.344 2.90875 24.216 2.90875 19.288C2.90875 16.024 3.64475 12.984 5.11675 10.168C6.65275 7.352 8.95675 5.08 12.0288 3.352C15.1648 1.62399 19.1008 0.759995 23.8368 0.759995C29.0208 0.759995 33.2128 1.72 36.4128 3.64C39.6128 5.496 41.8528 7.928 43.1328 10.936C44.4128 13.944 44.7328 17.176 44.0928 20.632L33.0528 22.648C34.0768 16.696 33.6288 12.12 31.7088 8.92C29.8528 5.72 26.8128 4.12 22.5888 4.12C19.3248 4.12 16.7008 5.08 14.7168 7C12.7968 8.92 11.8368 11.672 11.8368 15.256C11.8368 18.2 12.6688 20.792 14.3328 23.032C16.0608 25.272 18.8768 27 22.7808 28.216L31.7088 30.904C36.5728 32.312 40.2208 34.456 42.6528 37.336C45.0848 40.152 46.3008 44.088 46.3008 49.144C46.3008 52.728 45.4688 55.96 43.8048 58.84C42.2048 61.656 39.7408 63.896 36.4128 65.56C33.1488 67.16 29.0528 67.96 24.1248 67.96C20.5408 67.96 17.1488 67.448 13.9488 66.424C10.7488 65.336 8.06075 63.576 5.88475 61.144C3.77275 58.712 2.42875 55.416 1.85275 51.256L8.28475 48.952C8.60475 53.048 9.50075 56.248 10.9728 58.552C12.5088 60.792 14.3968 62.36 16.6368 63.256C18.9408 64.152 21.4048 64.6 24.0288 64.6ZM97.711 4.408V1.72H116.335V4.408L111.055 5.08C110.031 5.208 109.423 5.496 109.231 5.944C109.039 6.328 108.943 7.608 108.943 9.784V44.824C108.943 52.504 107.311 58.296 104.047 62.2C100.847 66.04 95.919 67.96 89.263 67.96C81.519 67.96 75.279 65.848 70.543 61.624C65.807 57.4 63.439 51.32 63.439 43.384V9.784C63.439 7.608 63.343 6.328 63.151 5.944C62.959 5.496 62.351 5.208 61.327 5.08L56.047 4.408V1.72H82.351V4.408L77.071 5.08C76.047 5.208 75.439 5.496 75.247 5.944C75.055 6.328 74.959 7.608 74.959 9.784V44.056C74.959 51.224 76.271 56.408 78.895 59.608C81.519 62.808 85.263 64.408 90.127 64.408C94.863 64.408 98.543 62.904 101.167 59.896C103.791 56.824 105.103 51.864 105.103 45.016V9.784C105.103 7.608 105.007 6.328 104.815 5.944C104.623 5.496 104.015 5.208 102.991 5.08L97.711 4.408ZM125.128 4.408V1.72H153.448C161.64 1.72 167.912 4.12 172.264 8.92C176.68 13.72 178.888 21.176 178.888 31.288V37.336C178.888 47.448 176.68 54.936 172.264 59.8C167.912 64.6 161.64 67 153.448 67H125.128V64.312L130.408 63.64C131.432 63.512 132.04 63.256 132.232 62.872C132.424 62.424 132.52 61.112 132.52 58.936V9.784C132.52 7.608 132.424 6.328 132.232 5.944C132.04 5.496 131.432 5.208 130.408 5.08L125.128 4.408ZM152.968 5.08H144.04V63.64H152.968C156.232 63.64 158.856 63.096 160.84 62.008C162.824 60.856 164.264 58.744 165.16 55.672C166.12 52.536 166.6 48.024 166.6 42.136V26.488C166.6 20.6 166.12 16.12 165.16 13.048C164.264 9.976 162.824 7.896 160.84 6.808C158.856 5.656 156.232 5.08 152.968 5.08ZM202.184 64.312V67H183.656V64.312L188.936 63.64C189.64 63.512 190.152 63.384 190.472 63.256C190.792 63.064 191.08 62.648 191.336 62.008C191.592 61.368 191.944 60.344 192.392 58.936L210.729 1.72H218.984L237.417 58.936C237.865 60.344 238.217 61.368 238.472 62.008C238.728 62.648 239.016 63.064 239.336 63.256C239.721 63.384 240.233 63.512 240.873 63.64L246.153 64.312V67H219.656V64.312L224.937 63.64C225.961 63.512 226.505 63.256 226.568 62.872C226.696 62.424 226.408 61.112 225.704 58.936L222.057 47.032H199.88L196.136 58.936C195.496 61.112 195.208 62.424 195.272 62.872C195.336 63.256 195.88 63.512 196.904 63.64L202.184 64.312ZM201.032 43.672H221L211.112 11.8L201.032 43.672ZM292.105 4.408V1.72H310.729V4.408L305.449 5.08C304.425 5.208 303.817 5.496 303.625 5.944C303.433 6.328 303.337 7.608 303.337 9.784V67H298.057L262.825 10.072V58.936C262.825 61.112 262.921 62.424 263.113 62.872C263.305 63.256 263.913 63.512 264.937 63.64L270.217 64.312V67H251.593V64.312L256.873 63.64C257.897 63.512 258.505 63.256 258.697 62.872C258.889 62.424 258.985 61.112 258.985 58.936V9.784C258.985 7.608 258.889 6.328 258.697 5.944C258.505 5.496 257.897 5.208 256.873 5.08L251.593 4.408V1.72H270.889L299.497 47.704V9.784C299.497 7.608 299.401 6.328 299.209 5.944C299.017 5.496 298.409 5.208 297.385 5.08L292.105 4.408ZM29.3738 102.272V100.48H41.7898V102.272L38.2698 102.72C37.5871 102.805 37.1818 102.997 37.0538 103.296C36.9258 103.552 36.8618 104.405 36.8618 105.856V144H33.3418L9.85375 106.048V138.624C9.85375 140.075 9.91775 140.949 10.0458 141.248C10.1738 141.504 10.5791 141.675 11.2618 141.76L14.7818 142.208V144H2.36575V142.208L5.88575 141.76C6.56842 141.675 6.97375 141.504 7.10175 141.248C7.22975 140.949 7.29375 140.075 7.29375 138.624V105.856C7.29375 104.405 7.22975 103.552 7.10175 103.296C6.97375 102.997 6.56842 102.805 5.88575 102.72L2.36575 102.272V100.48H15.2298L34.3018 131.136V105.856C34.3018 104.405 34.2378 103.552 34.1098 103.296C33.9818 102.997 33.5764 102.805 32.8938 102.72L29.3738 102.272ZM56.4868 142.208V144H44.1348V142.208L47.6548 141.76C48.1241 141.675 48.4654 141.589 48.6788 141.504C48.8921 141.376 49.0841 141.099 49.2548 140.672C49.4254 140.245 49.6601 139.563 49.9588 138.624L62.1828 100.48H67.6868L79.9748 138.624C80.2734 139.563 80.5081 140.245 80.6788 140.672C80.8494 141.099 81.0414 141.376 81.2548 141.504C81.5108 141.589 81.8521 141.675 82.2788 141.76L85.7988 142.208V144H68.1348V142.208L71.6548 141.76C72.3374 141.675 72.7001 141.504 72.7428 141.248C72.8281 140.949 72.6361 140.075 72.1668 138.624L69.7348 130.688H54.9508L52.4548 138.624C52.0281 140.075 51.8361 140.949 51.8788 141.248C51.9214 141.504 52.2841 141.675 52.9668 141.76L56.4868 142.208ZM55.7188 128.448H69.0308L62.4388 107.2L55.7188 128.448ZM84.2543 100.48H119.454V111.488H117.662L115.614 104.384C115.486 103.829 115.337 103.445 115.166 103.232C115.038 102.976 114.761 102.827 114.334 102.784C113.908 102.741 113.182 102.72 112.158 102.72H105.694V138.624C105.694 140.075 105.758 140.949 105.886 141.248C106.014 141.504 106.42 141.675 107.102 141.76L110.622 142.208V144H93.0863V142.208L96.6063 141.76C97.2889 141.675 97.6943 141.504 97.8223 141.248C97.9503 140.949 98.0143 140.075 98.0143 138.624V102.72H91.5503C90.5689 102.72 89.8436 102.741 89.3743 102.784C88.9476 102.827 88.6703 102.976 88.5423 103.232C88.4143 103.445 88.2649 103.829 88.0943 104.384L86.0463 111.488H84.2543V100.48ZM124.268 102.272V100.48H141.804V102.272L138.284 102.72C137.602 102.805 137.196 102.997 137.068 103.296C136.94 103.552 136.876 104.405 136.876 105.856V138.624C136.876 140.075 136.94 140.949 137.068 141.248C137.196 141.504 137.602 141.675 138.284 141.76L141.804 142.208V144H124.268V142.208L127.788 141.76C128.471 141.675 128.876 141.504 129.004 141.248C129.132 140.949 129.196 140.075 129.196 138.624V105.856C129.196 104.405 129.132 103.552 129.004 103.296C128.876 102.997 128.471 102.805 127.788 102.72L124.268 102.272ZM184.771 120.192V124.224C184.771 130.795 183.299 135.851 180.355 139.392C177.453 142.891 173.144 144.64 167.427 144.64C161.709 144.64 157.379 142.891 154.435 139.392C151.533 135.851 150.083 130.795 150.083 124.224V120.192C150.083 113.621 151.533 108.587 154.435 105.088C157.379 101.589 161.709 99.84 167.427 99.84C173.144 99.84 177.453 101.589 180.355 105.088C183.299 108.587 184.771 113.621 184.771 120.192ZM176.579 116.992C176.579 113.237 176.259 110.293 175.619 108.16C174.979 105.984 173.976 104.427 172.611 103.488C171.288 102.549 169.56 102.08 167.427 102.08C165.336 102.08 163.608 102.549 162.243 103.488C160.877 104.427 159.875 105.984 159.235 108.16C158.595 110.293 158.275 113.237 158.275 116.992V127.424C158.275 131.136 158.595 134.08 159.235 136.256C159.875 138.432 160.877 140.011 162.243 140.992C163.608 141.931 165.336 142.4 167.427 142.4C169.56 142.4 171.288 141.931 172.611 140.992C173.976 140.011 174.979 138.432 175.619 136.256C176.259 134.08 176.579 131.136 176.579 127.424V116.992ZM220.024 102.272V100.48H232.44V102.272L228.92 102.72C228.237 102.805 227.832 102.997 227.704 103.296C227.576 103.552 227.512 104.405 227.512 105.856V144H223.992L200.504 106.048V138.624C200.504 140.075 200.568 140.949 200.696 141.248C200.824 141.504 201.229 141.675 201.912 141.76L205.432 142.208V144H193.016V142.208L196.536 141.76C197.218 141.675 197.624 141.504 197.752 141.248C197.88 140.949 197.944 140.075 197.944 138.624V105.856C197.944 104.405 197.88 103.552 197.752 103.296C197.624 102.997 197.218 102.805 196.536 102.72L193.016 102.272V100.48H205.88L224.952 131.136V105.856C224.952 104.405 224.888 103.552 224.76 103.296C224.632 102.997 224.226 102.805 223.544 102.72L220.024 102.272ZM247.137 142.208V144H234.785V142.208L238.305 141.76C238.774 141.675 239.115 141.589 239.329 141.504C239.542 141.376 239.734 141.099 239.905 140.672C240.075 140.245 240.31 139.563 240.609 138.624L252.833 100.48H258.337L270.625 138.624C270.923 139.563 271.158 140.245 271.329 140.672C271.499 141.099 271.691 141.376 271.905 141.504C272.161 141.589 272.502 141.675 272.929 141.76L276.449 142.208V144H258.785V142.208L262.305 141.76C262.987 141.675 263.35 141.504 263.393 141.248C263.478 140.949 263.286 140.075 262.817 138.624L260.385 130.688H245.601L243.105 138.624C242.678 140.075 242.486 140.949 242.529 141.248C242.571 141.504 242.934 141.675 243.617 141.76L247.137 142.208ZM246.369 128.448H259.681L253.089 107.2L246.369 128.448ZM308.684 132.992H310.476V144H280.076V142.208L283.596 141.76C284.278 141.675 284.684 141.504 284.812 141.248C284.94 140.949 285.004 140.075 285.004 138.624V105.856C285.004 104.405 284.94 103.552 284.812 103.296C284.684 102.997 284.278 102.805 283.596 102.72L280.076 102.272V100.48H297.612V102.272L294.092 102.72C293.409 102.805 293.004 102.997 292.876 103.296C292.748 103.552 292.684 104.405 292.684 105.856V141.76H303.18C304.204 141.76 304.929 141.739 305.356 141.696C305.782 141.611 306.06 141.461 306.188 141.248C306.358 140.992 306.508 140.608 306.636 140.096L308.684 132.992ZM56.9522 227.984V230H37.2242V227.984L41.1842 227.48C41.9522 227.384 42.4082 227.192 42.5522 226.904C42.6962 226.568 42.7682 225.584 42.7682 223.952V186.944L29.5922 224.24H21.8882L8.85624 187.16V223.952C8.85624 225.584 8.92824 226.568 9.07224 226.904C9.21624 227.192 9.67224 227.384 10.4402 227.48L14.4002 227.984V230H0.432243V227.984L4.39224 227.48C5.16024 227.384 5.61624 227.192 5.76024 226.904C5.90424 226.568 5.97624 225.584 5.97624 223.952V187.088C5.97624 185.456 5.90424 184.496 5.76024 184.208C5.61624 183.872 5.16024 183.656 4.39224 183.56L0.432243 183.056V181.04H15.6242L28.8002 218.48L42.1922 181.04H56.9522V183.056L52.9922 183.56C52.2242 183.656 51.7682 183.872 51.6242 184.208C51.4802 184.496 51.4082 185.456 51.4082 187.088V223.952C51.4082 225.584 51.4802 226.568 51.6242 226.904C51.7682 227.192 52.2242 227.384 52.9922 227.48L56.9522 227.984ZM94.687 183.056V181.04H108.655V183.056L104.695 183.56C103.927 183.656 103.471 183.872 103.327 184.208C103.183 184.496 103.111 185.456 103.111 187.088V213.368C103.111 219.128 101.887 223.472 99.439 226.4C97.039 229.28 93.343 230.72 88.351 230.72C82.543 230.72 77.863 229.136 74.311 225.968C70.759 222.8 68.983 218.24 68.983 212.288V187.088C68.983 185.456 68.911 184.496 68.767 184.208C68.623 183.872 68.167 183.656 67.399 183.56L63.439 183.056V181.04H83.167V183.056L79.207 183.56C78.439 183.656 77.983 183.872 77.839 184.208C77.695 184.496 77.623 185.456 77.623 187.088V212.792C77.623 218.168 78.607 222.056 80.575 224.456C82.543 226.856 85.351 228.056 88.999 228.056C92.551 228.056 95.311 226.928 97.279 224.672C99.247 222.368 100.231 218.648 100.231 213.512V187.088C100.231 185.456 100.159 184.496 100.015 184.208C99.871 183.872 99.415 183.656 98.647 183.56L94.687 183.056ZM131.954 228.2C134.834 228.2 137.21 227.528 139.082 226.184C141.002 224.792 141.962 222.632 141.962 219.704C141.962 217.544 141.314 215.744 140.018 214.304C138.77 212.864 136.514 211.664 133.25 210.704L126.554 208.688C123.194 207.68 120.602 205.952 118.778 203.504C117.002 201.008 116.114 197.912 116.114 194.216C116.114 191.768 116.666 189.488 117.77 187.376C118.922 185.264 120.65 183.56 122.954 182.264C125.306 180.968 128.258 180.32 131.81 180.32C135.698 180.32 138.842 181.04 141.242 182.48C143.642 183.872 145.322 185.696 146.282 187.952C147.242 190.208 147.482 192.632 147.002 195.224L138.722 196.736C139.49 192.272 139.154 188.84 137.714 186.44C136.322 184.04 134.042 182.84 130.874 182.84C128.426 182.84 126.458 183.56 124.97 185C123.53 186.44 122.81 188.504 122.81 191.192C122.81 193.4 123.434 195.344 124.682 197.024C125.978 198.704 128.09 200 131.018 200.912L137.714 202.928C141.362 203.984 144.098 205.592 145.922 207.752C147.746 209.864 148.658 212.816 148.658 216.608C148.658 219.296 148.034 221.72 146.786 223.88C145.586 225.992 143.738 227.672 141.242 228.92C138.794 230.12 135.722 230.72 132.026 230.72C129.338 230.72 126.794 230.336 124.394 229.568C121.994 228.752 119.978 227.432 118.346 225.608C116.762 223.784 115.754 221.312 115.322 218.192L120.146 216.464C120.386 219.536 121.058 221.936 122.162 223.664C123.314 225.344 124.73 226.52 126.41 227.192C128.138 227.864 129.986 228.2 131.954 228.2ZM190.743 217.616H192.759V230H157.119V227.984L161.079 227.48C161.847 227.384 162.303 227.192 162.447 226.904C162.591 226.568 162.663 225.584 162.663 223.952V187.088C162.663 185.456 162.591 184.496 162.447 184.208C162.303 183.872 161.847 183.656 161.079 183.56L157.119 183.056V181.04H192.039V193.424H190.023L187.719 185.432C187.575 184.856 187.407 184.448 187.215 184.208C187.071 183.92 186.759 183.752 186.279 183.704C185.799 183.608 184.983 183.56 183.831 183.56H171.303V204.008H179.511C180.663 204.008 181.479 203.984 181.959 203.936C182.439 203.84 182.751 203.672 182.895 203.432C183.087 203.144 183.255 202.712 183.399 202.136L184.983 196.304H186.999V214.232H184.983L183.399 208.4C183.255 207.824 183.087 207.416 182.895 207.176C182.751 206.888 182.439 206.72 181.959 206.672C181.479 206.576 180.663 206.528 179.511 206.528H171.303V227.48H184.551C185.703 227.48 186.519 227.456 186.999 227.408C187.479 227.312 187.791 227.144 187.935 226.904C188.127 226.616 188.295 226.184 188.439 225.608L190.743 217.616ZM232.038 183.056V181.04H246.006V183.056L242.046 183.56C241.278 183.656 240.822 183.872 240.678 184.208C240.534 184.496 240.462 185.456 240.462 187.088V213.368C240.462 219.128 239.238 223.472 236.79 226.4C234.39 229.28 230.694 230.72 225.702 230.72C219.894 230.72 215.214 229.136 211.662 225.968C208.11 222.8 206.334 218.24 206.334 212.288V187.088C206.334 185.456 206.262 184.496 206.118 184.208C205.974 183.872 205.518 183.656 204.75 183.56L200.79 183.056V181.04H220.518V183.056L216.558 183.56C215.79 183.656 215.334 183.872 215.19 184.208C215.046 184.496 214.974 185.456 214.974 187.088V212.792C214.974 218.168 215.958 222.056 217.926 224.456C219.894 226.856 222.702 228.056 226.35 228.056C229.902 228.056 232.662 226.928 234.63 224.672C236.598 222.368 237.582 218.648 237.582 213.512V187.088C237.582 185.456 237.51 184.496 237.366 184.208C237.222 183.872 236.766 183.656 235.998 183.56L232.038 183.056ZM309.121 227.984V230H289.393V227.984L293.353 227.48C294.121 227.384 294.577 227.192 294.721 226.904C294.865 226.568 294.937 225.584 294.937 223.952V186.944L281.761 224.24H274.057L261.025 187.16V223.952C261.025 225.584 261.097 226.568 261.241 226.904C261.385 227.192 261.841 227.384 262.609 227.48L266.569 227.984V230H252.601V227.984L256.561 227.48C257.329 227.384 257.785 227.192 257.929 226.904C258.073 226.568 258.145 225.584 258.145 223.952V187.088C258.145 185.456 258.073 184.496 257.929 184.208C257.785 183.872 257.329 183.656 256.561 183.56L252.601 183.056V181.04H267.793L280.969 218.48L294.361 181.04H309.121V183.056L305.161 183.56C304.393 183.656 303.937 183.872 303.793 184.208C303.649 184.496 303.577 185.456 303.577 187.088V223.952C303.577 225.584 303.649 226.568 303.793 226.904C303.937 227.192 304.393 227.384 305.161 227.48L309.121 227.984Z" fill="url(#paint0_linear_418_298)"/>
<defs>
<linearGradient id="paint0_linear_418_298" x1="39" y1="-14" x2="311" y2="220" gradientUnits="userSpaceOnUse">
<stop stop-color="white"/>
<stop offset="0.369792" stop-color="#DBB089"/>
<stop offset="0.984375" stop-color="#BE7A3B"/>
</linearGradient>
</defs>
</svg>
