<svg width="137" height="137" viewBox="0 0 137 137" fill="none" xmlns="http://www.w3.org/2000/svg">
<path d="M68.5 61.708C66.6987 61.708 64.9713 62.4236 63.6976 63.6972C62.4239 64.9709 61.7083 66.6984 61.7083 68.4997V95.6663C61.7083 97.4676 62.4239 99.1951 63.6976 100.469C64.9713 101.742 66.6987 102.458 68.5 102.458C70.3013 102.458 72.0288 101.742 73.3024 100.469C74.5761 99.1951 75.2917 97.4676 75.2917 95.6663V68.4997C75.2917 66.6984 74.5761 64.9709 73.3024 63.6972C72.0288 62.4236 70.3013 61.708 68.5 61.708ZM71.0808 35.0847C69.4273 34.4054 67.5727 34.4054 65.9192 35.0847C65.0855 35.4079 64.3238 35.8926 63.6779 36.5109C63.078 37.1711 62.5956 37.9291 62.2517 38.7522C61.8715 39.5582 61.6854 40.4421 61.7083 41.333C61.7032 42.2268 61.8745 43.1129 62.2125 43.9404C62.5505 44.7679 63.0485 45.5205 63.6779 46.1551C64.3381 46.755 65.0961 47.2374 65.9192 47.5813C66.9481 48.0041 68.0651 48.1676 69.172 48.0575C70.2789 47.9475 71.3419 47.5672 72.2674 46.9502C73.193 46.3332 73.9528 45.4982 74.4801 44.5188C75.0075 43.5393 75.2861 42.4454 75.2917 41.333C75.2667 39.5348 74.5632 37.8124 73.3221 36.5109C72.6762 35.8926 71.9145 35.4079 71.0808 35.0847ZM68.5 0.583008C55.0674 0.583008 41.9364 4.56625 30.7675 12.029C19.5987 19.4918 10.8936 30.0989 5.75319 42.5091C0.61274 54.9192 -0.732236 68.575 1.88834 81.7496C4.50892 94.9241 10.9774 107.026 20.4757 116.524C29.974 126.022 42.0756 132.491 55.2501 135.111C68.4247 137.732 82.0804 136.387 94.4906 131.247C106.901 126.106 117.508 117.401 124.971 106.232C132.433 95.0633 136.417 81.9323 136.417 68.4997C136.417 59.5807 134.66 50.7491 131.247 42.5091C127.834 34.2691 122.831 26.782 116.524 20.4753C110.218 14.1687 102.731 9.16599 94.4906 5.75286C86.2506 2.33972 77.419 0.583008 68.5 0.583008ZM68.5 122.833C57.7539 122.833 47.2491 119.646 38.314 113.676C29.379 107.706 22.4149 99.2203 18.3026 89.2921C14.1902 79.364 13.1142 68.4394 15.2107 57.8998C17.3071 47.3601 22.4819 37.6789 30.0805 30.0802C37.6792 22.4816 47.3605 17.3068 57.9001 15.2103C68.4397 13.1139 79.3644 14.1899 89.2925 18.3022C99.2206 22.4146 107.706 29.3786 113.677 38.3137C119.647 47.2488 122.833 57.7536 122.833 68.4997C122.833 82.9098 117.109 96.7297 106.919 106.919C96.73 117.109 82.9101 122.833 68.5 122.833Z" fill="url(#paint0_linear_481_40)"/>
<defs>
<linearGradient id="paint0_linear_481_40" x1="68.5" y1="0.583008" x2="68.5" y2="136.416" gradientUnits="userSpaceOnUse">
<stop stop-color="#BE7A3B"/>
<stop offset="1" stop-color="#DBB089"/>
</linearGradient>
</defs>
</svg>
