<svg width="651" height="68" viewBox="0 0 651 68" fill="none" xmlns="http://www.w3.org/2000/svg">
<path d="M27.4889 67.96C21.6009 67.96 16.6089 66.712 12.5129 64.216C8.41687 61.656 5.31287 58.072 3.20087 53.464C1.08887 48.856 0.0328689 43.48 0.0328689 37.336V31.288C0.0328689 25.144 0.960869 19.8 2.81687 15.256C4.73687 10.648 7.58487 7.096 11.3609 4.6C15.1369 2.04 19.8729 0.759995 25.5689 0.759995C30.4329 0.759995 34.4969 1.72 37.7609 3.64C41.0249 5.496 43.4249 7.992 44.9609 11.128C46.5609 14.2 47.2329 17.56 46.9769 21.208L35.7449 23.992C36.3849 17.592 35.7129 12.696 33.7289 9.304C31.8089 5.848 28.9289 4.12 25.0889 4.12C20.9929 4.12 17.8249 5.848 15.5849 9.304C13.4089 12.76 12.3209 18.488 12.3209 26.488V42.136C12.3209 50.072 13.5689 55.8 16.0649 59.32C18.5609 62.84 22.3689 64.6 27.4889 64.6C29.6009 64.6 31.5529 64.216 33.3449 63.448C35.2009 62.68 36.7369 61.368 37.9529 59.512C39.2329 57.592 40.0329 54.904 40.3529 51.448L47.2649 53.272C46.3689 56.856 44.9289 59.736 42.9449 61.912C40.9609 64.088 38.6249 65.656 35.9369 66.616C33.3129 67.512 30.4969 67.96 27.4889 67.96ZM111.266 31.288V37.336C111.266 47.192 109.058 54.776 104.642 60.088C100.29 65.336 93.8261 67.96 85.2501 67.96C76.6741 67.96 70.1781 65.336 65.7621 60.088C61.4101 54.776 59.2341 47.192 59.2341 37.336V31.288C59.2341 21.432 61.4101 13.88 65.7621 8.632C70.1781 3.384 76.6741 0.759995 85.2501 0.759995C93.8261 0.759995 100.29 3.384 104.642 8.632C109.058 13.88 111.266 21.432 111.266 31.288ZM98.9781 26.488C98.9781 20.856 98.4981 16.44 97.5381 13.24C96.5781 9.976 95.0741 7.64 93.0261 6.232C91.0421 4.824 88.4501 4.12 85.2501 4.12C82.1141 4.12 79.5221 4.824 77.4741 6.232C75.4261 7.64 73.9221 9.976 72.9621 13.24C72.0021 16.44 71.5221 20.856 71.5221 26.488V42.136C71.5221 47.704 72.0021 52.12 72.9621 55.384C73.9221 58.648 75.4261 61.016 77.4741 62.488C79.5221 63.896 82.1141 64.6 85.2501 64.6C88.4501 64.6 91.0421 63.896 93.0261 62.488C95.0741 61.016 96.5781 58.648 97.5381 55.384C98.4981 52.12 98.9781 47.704 98.9781 42.136V26.488ZM198.994 64.312V67H172.69V64.312L177.97 63.64C178.994 63.512 179.602 63.256 179.794 62.872C179.986 62.424 180.082 61.112 180.082 58.936V9.592L162.514 59.32H152.242L134.866 9.88V58.936C134.866 61.112 134.962 62.424 135.154 62.872C135.346 63.256 135.954 63.512 136.978 63.64L142.258 64.312V67H123.634V64.312L128.914 63.64C129.938 63.512 130.546 63.256 130.738 62.872C130.93 62.424 131.026 61.112 131.026 58.936V9.784C131.026 7.608 130.93 6.328 130.738 5.944C130.546 5.496 129.938 5.208 128.914 5.08L123.634 4.408V1.72H143.89L161.458 51.64L179.314 1.72H198.994V4.408L193.714 5.08C192.69 5.208 192.082 5.496 191.89 5.944C191.698 6.328 191.602 7.608 191.602 9.784V58.936C191.602 61.112 191.698 62.424 191.89 62.872C192.082 63.256 192.69 63.512 193.714 63.64L198.994 64.312ZM209.179 4.408V1.72H235.483V4.408L230.203 5.08C229.179 5.208 228.571 5.496 228.379 5.944C228.187 6.328 228.091 7.608 228.091 9.784V58.936C228.091 61.112 228.187 62.424 228.379 62.872C228.571 63.256 229.179 63.512 230.203 63.64L235.483 64.312V67H209.179V64.312L214.459 63.64C215.483 63.512 216.091 63.256 216.283 62.872C216.475 62.424 216.571 61.112 216.571 58.936V9.784C216.571 7.608 216.475 6.328 216.283 5.944C216.091 5.496 215.483 5.208 214.459 5.08L209.179 4.408ZM286.204 4.408V1.72H304.828V4.408L299.548 5.08C298.524 5.208 297.916 5.496 297.724 5.944C297.532 6.328 297.436 7.608 297.436 9.784V67H292.156L256.924 10.072V58.936C256.924 61.112 257.02 62.424 257.212 62.872C257.404 63.256 258.012 63.512 259.036 63.64L264.316 64.312V67H245.692V64.312L250.972 63.64C251.996 63.512 252.604 63.256 252.796 62.872C252.988 62.424 253.084 61.112 253.084 58.936V9.784C253.084 7.608 252.988 6.328 252.796 5.944C252.604 5.496 251.996 5.208 250.972 5.08L245.692 4.408V1.72H264.988L293.596 47.704V9.784C293.596 7.608 293.5 6.328 293.308 5.944C293.116 5.496 292.508 5.208 291.484 5.08L286.204 4.408ZM344.047 40.12V37.432H371.311V40.12L366.031 40.792C365.007 40.92 364.399 41.208 364.207 41.656C364.015 42.04 363.919 43.32 363.919 45.496V67H361.327C359.599 65.208 357.679 63.704 355.567 62.488C353.839 64.024 351.791 65.336 349.423 66.424C347.055 67.448 344.175 67.96 340.783 67.96C335.535 67.96 331.023 66.648 327.247 64.024C323.535 61.336 320.687 57.656 318.703 52.984C316.719 48.248 315.727 42.872 315.727 36.856V30.808C315.727 24.984 316.719 19.832 318.703 15.352C320.687 10.808 323.599 7.256 327.439 4.696C331.279 2.07199 335.983 0.759995 341.551 0.759995C346.799 0.759995 351.119 1.72 354.511 3.64C357.967 5.496 360.495 7.992 362.095 11.128C363.695 14.2 364.303 17.56 363.919 21.208L352.687 23.992C353.391 17.592 352.687 12.696 350.575 9.304C348.463 5.848 345.327 4.12 341.167 4.12C332.399 4.12 328.015 11.896 328.015 27.448V41.176C328.015 56.792 332.655 64.6 341.935 64.6C343.983 64.6 346.031 64.184 348.079 63.352C350.191 62.52 351.951 61.304 353.359 59.704V45.496C353.359 43.32 353.263 42.008 353.071 41.56C352.879 41.112 352.271 40.856 351.247 40.792L344.047 40.12ZM424.756 64.6C428.596 64.6 431.764 63.704 434.26 61.912C436.82 60.056 438.1 57.176 438.1 53.272C438.1 50.392 437.236 47.992 435.508 46.072C433.844 44.152 430.836 42.552 426.484 41.272L417.556 38.584C413.076 37.24 409.62 34.936 407.188 31.672C404.82 28.344 403.636 24.216 403.636 19.288C403.636 16.024 404.372 12.984 405.844 10.168C407.38 7.352 409.684 5.08 412.756 3.352C415.892 1.62399 419.828 0.759995 424.564 0.759995C429.748 0.759995 433.94 1.72 437.14 3.64C440.34 5.496 442.58 7.928 443.86 10.936C445.14 13.944 445.46 17.176 444.82 20.632L433.78 22.648C434.804 16.696 434.356 12.12 432.436 8.92C430.58 5.72 427.54 4.12 423.316 4.12C420.052 4.12 417.428 5.08 415.444 7C413.524 8.92 412.564 11.672 412.564 15.256C412.564 18.2 413.396 20.792 415.06 23.032C416.788 25.272 419.604 27 423.508 28.216L432.436 30.904C437.3 32.312 440.948 34.456 443.38 37.336C445.812 40.152 447.028 44.088 447.028 49.144C447.028 52.728 446.196 55.96 444.532 58.84C442.932 61.656 440.468 63.896 437.14 65.56C433.876 67.16 429.78 67.96 424.852 67.96C421.268 67.96 417.876 67.448 414.676 66.424C411.476 65.336 408.788 63.576 406.612 61.144C404.5 58.712 403.156 55.416 402.58 51.256L409.012 48.952C409.332 53.048 410.228 56.248 411.7 58.552C413.236 60.792 415.124 62.36 417.364 63.256C419.668 64.152 422.132 64.6 424.756 64.6ZM512.55 31.288V37.336C512.55 47.192 510.342 54.776 505.926 60.088C501.574 65.336 495.11 67.96 486.534 67.96C477.958 67.96 471.462 65.336 467.046 60.088C462.694 54.776 460.518 47.192 460.518 37.336V31.288C460.518 21.432 462.694 13.88 467.046 8.632C471.462 3.384 477.958 0.759995 486.534 0.759995C495.11 0.759995 501.574 3.384 505.926 8.632C510.342 13.88 512.55 21.432 512.55 31.288ZM500.262 26.488C500.262 20.856 499.782 16.44 498.822 13.24C497.862 9.976 496.358 7.64 494.31 6.232C492.326 4.824 489.734 4.12 486.534 4.12C483.398 4.12 480.806 4.824 478.758 6.232C476.71 7.64 475.206 9.976 474.246 13.24C473.286 16.44 472.806 20.856 472.806 26.488V42.136C472.806 47.704 473.286 52.12 474.246 55.384C475.206 58.648 476.71 61.016 478.758 62.488C480.806 63.896 483.398 64.6 486.534 64.6C489.734 64.6 492.326 63.896 494.31 62.488C496.358 61.016 497.862 58.648 498.822 55.384C499.782 52.12 500.262 47.704 500.262 42.136V26.488ZM579.157 31.288V37.336C579.157 47.192 576.949 54.776 572.533 60.088C568.181 65.336 561.717 67.96 553.141 67.96C544.565 67.96 538.069 65.336 533.653 60.088C529.301 54.776 527.125 47.192 527.125 37.336V31.288C527.125 21.432 529.301 13.88 533.653 8.632C538.069 3.384 544.565 0.759995 553.141 0.759995C561.717 0.759995 568.181 3.384 572.533 8.632C576.949 13.88 579.157 21.432 579.157 31.288ZM566.869 26.488C566.869 20.856 566.389 16.44 565.429 13.24C564.469 9.976 562.965 7.64 560.917 6.232C558.933 4.824 556.341 4.12 553.141 4.12C550.005 4.12 547.413 4.824 545.365 6.232C543.317 7.64 541.813 9.976 540.853 13.24C539.893 16.44 539.413 20.856 539.413 26.488V42.136C539.413 47.704 539.893 52.12 540.853 55.384C541.813 58.648 543.317 61.016 545.365 62.488C547.413 63.896 550.005 64.6 553.141 64.6C556.341 64.6 558.933 63.896 560.917 62.488C562.965 61.016 564.469 58.648 565.429 55.384C566.389 52.12 566.869 47.704 566.869 42.136V26.488ZM632.037 4.408V1.72H650.661V4.408L645.381 5.08C644.357 5.208 643.749 5.496 643.557 5.944C643.365 6.328 643.269 7.608 643.269 9.784V67H637.989L602.757 10.072V58.936C602.757 61.112 602.853 62.424 603.045 62.872C603.237 63.256 603.845 63.512 604.869 63.64L610.149 64.312V67H591.525V64.312L596.805 63.64C597.829 63.512 598.437 63.256 598.629 62.872C598.821 62.424 598.917 61.112 598.917 58.936V9.784C598.917 7.608 598.821 6.328 598.629 5.944C598.437 5.496 597.829 5.208 596.805 5.08L591.525 4.408V1.72H610.821L639.429 47.704V9.784C639.429 7.608 639.333 6.328 639.141 5.944C638.949 5.496 638.341 5.208 637.317 5.08L632.037 4.408Z" fill="url(#paint0_linear_403_194)"/>
<defs>
<linearGradient id="paint0_linear_403_194" x1="96.7752" y1="-22.9818" x2="127.135" y2="141.466" gradientUnits="userSpaceOnUse">
<stop stop-color="white"/>
<stop offset="0.369792" stop-color="#DBB089"/>
<stop offset="0.984375" stop-color="#BE7A3B"/>
</linearGradient>
</defs>
</svg>
